<svg width="35" height="35" viewBox="0 0 35 35" fill="none" xmlns="http://www.w3.org/2000/svg">
    <path fill-rule="evenodd" clip-rule="evenodd"
          d="M2.51182 2.39414C0.117676 4.78829 0.117676 8.64157 0.117676 16.3482V17.7106C0.117676 25.4172 0.117676 29.2705 2.51182 31.6647C4.90596 34.0588 8.75925 34.0588 16.4659 34.0588H17.8283C25.5349 34.0588 29.3882 34.0588 31.7824 31.6647C34.1765 29.2705 34.1765 25.4172 34.1765 17.7106V16.3482C34.1765 8.64157 34.1765 4.78829 31.7824 2.39414C29.3882 0 25.5349 0 17.8283 0H16.4659C8.75925 0 4.90596 0 2.51182 2.39414ZM5.86519 10.3596C6.04967 19.2149 10.4773 24.5366 18.2399 24.5366H18.6799V19.4704C21.5323 19.7542 23.6892 21.8403 24.5549 24.5366H28.5852C27.4783 20.5063 24.569 18.2783 22.7525 17.4268C24.569 16.3767 27.1234 13.8223 27.7336 10.3596H24.0722C23.2775 13.1695 20.9221 15.7239 18.6799 15.9651V10.3596H15.0184V20.1799C12.7478 19.6123 9.88128 16.8592 9.75356 10.3596H5.86519Z"
          fill="#F2F2F2"/>
</svg>
