<svg width="33" height="32" viewBox="0 0 33 32" fill="none" xmlns="http://www.w3.org/2000/svg">
    <path d="M16.1765 2.88125C20.4515 2.88125 20.9578 2.9 22.639 2.975C24.2015 3.04375 25.0453 3.30625 25.6078 3.525C26.3515 3.8125 26.889 4.1625 27.4453 4.71875C28.0078 5.28125 28.3515 5.8125 28.639 6.55625C28.8578 7.11875 29.1203 7.96875 29.189 9.525C29.264 11.2125 29.2828 11.7188 29.2828 15.9875C29.2828 20.2625 29.264 20.7688 29.189 22.45C29.1203 24.0125 28.8578 24.8563 28.639 25.4188C28.3515 26.1625 28.0015 26.7 27.4453 27.2563C26.8828 27.8188 26.3515 28.1625 25.6078 28.45C25.0453 28.6688 24.1953 28.9312 22.639 29C20.9515 29.075 20.4453 29.0938 16.1765 29.0938C11.9015 29.0938 11.3953 29.075 9.71401 29C8.15151 28.9312 7.30776 28.6688 6.74526 28.45C6.00151 28.1625 5.46401 27.8125 4.90776 27.2563C4.34526 26.6938 4.00151 26.1625 3.71401 25.4188C3.49526 24.8563 3.23276 24.0063 3.16401 22.45C3.08901 20.7625 3.07026 20.2563 3.07026 15.9875C3.07026 11.7125 3.08901 11.2062 3.16401 9.525C3.23276 7.9625 3.49526 7.11875 3.71401 6.55625C4.00151 5.8125 4.35151 5.275 4.90776 4.71875C5.47026 4.15625 6.00151 3.8125 6.74526 3.525C7.30776 3.30625 8.15776 3.04375 9.71401 2.975C11.3953 2.9 11.9015 2.88125 16.1765 2.88125ZM16.1765 0C11.8328 0 11.289 0.01875 9.58276 0.09375C7.88276 0.16875 6.71401 0.44375 5.70151 0.8375C4.64526 1.25 3.75151 1.79375 2.86401 2.6875C1.97026 3.575 1.42651 4.46875 1.01401 5.51875C0.620264 6.5375 0.345264 7.7 0.270264 9.4C0.195264 11.1125 0.176514 11.6562 0.176514 16C0.176514 20.3438 0.195264 20.8875 0.270264 22.5938C0.345264 24.2938 0.620264 25.4625 1.01401 26.475C1.42651 27.5313 1.97026 28.425 2.86401 29.3125C3.75151 30.2 4.64526 30.75 5.69526 31.1562C6.71401 31.55 7.87651 31.825 9.57651 31.9C11.2828 31.975 11.8265 31.9937 16.1703 31.9937C20.514 31.9937 21.0578 31.975 22.764 31.9C24.464 31.825 25.6328 31.55 26.6453 31.1562C27.6953 30.75 28.589 30.2 29.4765 29.3125C30.364 28.425 30.914 27.5313 31.3203 26.4813C31.714 25.4625 31.989 24.3 32.064 22.6C32.139 20.8938 32.1578 20.35 32.1578 16.0063C32.1578 11.6625 32.139 11.1188 32.064 9.4125C31.989 7.7125 31.714 6.54375 31.3203 5.53125C30.9265 4.46875 30.3828 3.575 29.489 2.6875C28.6015 1.8 27.7078 1.25 26.6578 0.84375C25.639 0.45 24.4765 0.175 22.7765 0.1C21.064 0.01875 20.5203 0 16.1765 0Z"
          fill="#F2F2F2"/>
    <path d="M16.1765 7.78128C11.639 7.78128 7.95776 11.4625 7.95776 16C7.95776 20.5375 11.639 24.2188 16.1765 24.2188C20.714 24.2188 24.3953 20.5375 24.3953 16C24.3953 11.4625 20.714 7.78128 16.1765 7.78128ZM16.1765 21.3313C13.2328 21.3313 10.8453 18.9438 10.8453 16C10.8453 13.0563 13.2328 10.6688 16.1765 10.6688C19.1203 10.6688 21.5078 13.0563 21.5078 16C21.5078 18.9438 19.1203 21.3313 16.1765 21.3313Z"
          fill="#F2F2F2"/>
    <path d="M26.639 7.45622C26.639 8.51872 25.7765 9.37497 24.7203 9.37497C23.6578 9.37497 22.8015 8.51247 22.8015 7.45622C22.8015 6.39371 23.664 5.53746 24.7203 5.53746C25.7765 5.53746 26.639 6.39996 26.639 7.45622Z"
          fill="#F2F2F2"/>
</svg>
