<svg width="33" height="32" viewBox="0 0 33 32" fill="none" xmlns="http://www.w3.org/2000/svg">
    <path d="M16.2115 2.88125C20.4865 2.88125 20.9928 2.9 22.674 2.975C24.2365 3.04375 25.0803 3.30625 25.6428 3.525C26.3865 3.8125 26.924 4.1625 27.4803 4.71875C28.0428 5.28125 28.3865 5.8125 28.674 6.55625C28.8928 7.11875 29.1553 7.96875 29.224 9.525C29.299 11.2125 29.3178 11.7188 29.3178 15.9875C29.3178 20.2625 29.299 20.7688 29.224 22.45C29.1553 24.0125 28.8928 24.8563 28.674 25.4188C28.3865 26.1625 28.0365 26.7 27.4803 27.2563C26.9178 27.8188 26.3865 28.1625 25.6428 28.45C25.0803 28.6688 24.2303 28.9312 22.674 29C20.9865 29.075 20.4803 29.0938 16.2115 29.0938C11.9365 29.0938 11.4303 29.075 9.74905 29C8.18655 28.9312 7.3428 28.6688 6.7803 28.45C6.03655 28.1625 5.49905 27.8125 4.9428 27.2563C4.3803 26.6938 4.03655 26.1625 3.74905 25.4188C3.5303 24.8563 3.2678 24.0063 3.19905 22.45C3.12405 20.7625 3.1053 20.2563 3.1053 15.9875C3.1053 11.7125 3.12405 11.2062 3.19905 9.525C3.2678 7.9625 3.5303 7.11875 3.74905 6.55625C4.03655 5.8125 4.38655 5.275 4.9428 4.71875C5.5053 4.15625 6.03655 3.8125 6.7803 3.525C7.3428 3.30625 8.1928 3.04375 9.74905 2.975C11.4303 2.9 11.9365 2.88125 16.2115 2.88125ZM16.2115 0C11.8678 0 11.324 0.01875 9.6178 0.09375C7.9178 0.16875 6.74905 0.44375 5.73655 0.8375C4.6803 1.25 3.78655 1.79375 2.89905 2.6875C2.0053 3.575 1.46155 4.46875 1.04905 5.51875C0.655298 6.5375 0.380298 7.7 0.305298 9.4C0.230298 11.1125 0.211548 11.6562 0.211548 16C0.211548 20.3438 0.230298 20.8875 0.305298 22.5938C0.380298 24.2938 0.655298 25.4625 1.04905 26.475C1.46155 27.5313 2.0053 28.425 2.89905 29.3125C3.78655 30.2 4.6803 30.75 5.7303 31.1562C6.74905 31.55 7.91155 31.825 9.61155 31.9C11.3178 31.975 11.8615 31.9937 16.2053 31.9937C20.549 31.9937 21.0928 31.975 22.799 31.9C24.499 31.825 25.6678 31.55 26.6803 31.1562C27.7303 30.75 28.624 30.2 29.5115 29.3125C30.399 28.425 30.949 27.5313 31.3553 26.4813C31.749 25.4625 32.024 24.3 32.099 22.6C32.174 20.8938 32.1928 20.35 32.1928 16.0063C32.1928 11.6625 32.174 11.1188 32.099 9.4125C32.024 7.7125 31.749 6.54375 31.3553 5.53125C30.9615 4.46875 30.4178 3.575 29.524 2.6875C28.6365 1.8 27.7428 1.25 26.6928 0.84375C25.674 0.45 24.5115 0.175 22.8115 0.1C21.099 0.01875 20.5553 0 16.2115 0Z"
          fill="#333333"/>
    <path d="M16.2115 7.78128C11.674 7.78128 7.9928 11.4625 7.9928 16C7.9928 20.5375 11.674 24.2188 16.2115 24.2188C20.749 24.2188 24.4303 20.5375 24.4303 16C24.4303 11.4625 20.749 7.78128 16.2115 7.78128ZM16.2115 21.3313C13.2678 21.3313 10.8803 18.9438 10.8803 16C10.8803 13.0563 13.2678 10.6688 16.2115 10.6688C19.1553 10.6688 21.5428 13.0563 21.5428 16C21.5428 18.9438 19.1553 21.3313 16.2115 21.3313Z"
          fill="#333333"/>
    <path d="M26.674 7.45622C26.674 8.51872 25.8115 9.37497 24.7553 9.37497C23.6928 9.37497 22.8365 8.51247 22.8365 7.45622C22.8365 6.39371 23.699 5.53746 24.7553 5.53746C25.8115 5.53746 26.674 6.39996 26.674 7.45622Z"
          fill="#333333"/>
</svg>
