<svg width="313" height="264" viewBox="0 0 313 264" fill="none" xmlns="http://www.w3.org/2000/svg">
    <path fill-rule="evenodd" clip-rule="evenodd"
          d="M24.7628 180.423C10.705 178.04 0 165.804 0 151.067V58.2912C0 43.5507 10.711 31.3119 24.7746 28.9331C25.221 12.878 38.3763 0 54.5393 0H258.373C274.582 0 287.766 12.9516 288.141 29.0707C301.832 31.752 312.162 43.8153 312.162 58.2913V151.067C312.162 165.54 301.836 177.602 288.149 180.286V233.61C288.149 250.055 274.818 263.386 258.373 263.386H54.5393C38.0942 263.386 24.7628 250.055 24.7628 233.61V180.423ZM53.7853 61.4712C45.9073 71.562 47.6965 86.1344 57.7817 94.0196L98.7454 126.047L130.744 85.061C138.622 74.9702 136.833 60.3977 126.748 52.5125C116.662 44.6273 102.1 46.4153 94.2222 56.5061L90.7525 60.9505L86.3106 57.4776C76.2254 49.5924 61.6633 51.3803 53.7853 61.4712ZM181.367 85.061C173.489 74.9702 175.278 60.3978 185.363 52.5125C195.449 44.6273 210.011 46.4153 217.889 56.5062L221.358 60.9505L225.8 57.4776C235.886 49.5924 250.448 51.3804 258.326 61.4712C266.204 71.562 264.414 86.1344 254.329 94.0196L213.366 126.047L181.367 85.061Z"
          fill="white" fill-opacity="0.8"/>
</svg>
