<svg width="35" height="34" viewBox="0 0 35 34" fill="none" xmlns="http://www.w3.org/2000/svg">
<path fill-rule="evenodd" clip-rule="evenodd" d="M17.0298 0.116455C12.987 0.118553 9.07686 1.55041 5.99842 4.15601C2.91999 6.7616 0.874038 10.371 0.226412 14.3389C-0.421215 18.3067 0.371704 22.3742 2.4634 25.8141C4.5551 29.254 7.80918 31.8419 11.6438 33.1152C12.4897 33.2722 12.8084 32.7479 12.8084 32.302C12.8084 31.8562 12.7915 30.5636 12.7858 29.1505C8.04838 30.1739 7.04732 27.1513 7.04732 27.1513C6.27466 25.1886 5.15798 24.6727 5.15798 24.6727C3.61267 23.6241 5.2736 23.6437 5.2736 23.6437C6.98528 23.7643 7.88484 25.3905 7.88484 25.3905C9.40195 27.9785 11.8693 27.2298 12.8394 26.7924C12.9917 25.6961 13.4344 24.9503 13.9222 24.5269C10.1379 24.1007 6.16186 22.6483 6.16186 16.1602C6.13841 14.4775 6.76638 12.8503 7.91585 11.6151C7.74102 11.1889 7.15729 9.46735 8.08222 7.12893C8.08222 7.12893 9.51192 6.6747 12.7661 8.86452C15.5573 8.10555 18.5023 8.10555 21.2935 8.86452C24.5448 6.6747 25.9717 7.12893 25.9717 7.12893C26.8994 9.46174 26.3157 11.1833 26.1409 11.6151C27.294 12.8505 27.9233 14.4806 27.8977 16.1658C27.8977 22.668 23.9132 24.1007 20.1232 24.5185C20.7323 25.0456 21.2766 26.0746 21.2766 27.656C21.2766 29.9216 21.2568 31.7441 21.2568 32.302C21.2568 32.7535 21.5642 33.2806 22.4271 33.1152C26.2621 31.8418 29.5165 29.2534 31.6082 25.8129C33.6998 22.3724 34.4923 18.3043 33.844 14.3361C33.1956 10.3679 31.1486 6.75843 28.0692 4.15329C24.9897 1.54814 21.0786 0.117223 17.0354 0.116455H17.0298Z" fill="#333333"/>
<path d="M6.44909 24.4288C6.41243 24.5129 6.27707 24.5381 6.1671 24.4793C6.05712 24.4204 5.97535 24.311 6.01483 24.2241C6.05431 24.1372 6.18684 24.1147 6.29682 24.1736C6.4068 24.2325 6.49139 24.3447 6.44909 24.4288Z" fill="#333333"/>
<path d="M7.13999 25.1942C7.08159 25.2235 7.01478 25.2317 6.95099 25.2173C6.88721 25.203 6.83042 25.1671 6.79033 25.1157C6.68035 24.998 6.65778 24.8353 6.74238 24.7624C6.82697 24.6895 6.97926 24.7232 7.08924 24.8409C7.19921 24.9587 7.22459 25.1213 7.13999 25.1942Z" fill="#333333"/>
<path d="M7.81117 26.1672C7.70683 26.2401 7.52917 26.1672 7.43047 26.0214C7.40318 25.9953 7.38148 25.9639 7.36665 25.9292C7.35183 25.8946 7.34418 25.8573 7.34418 25.8196C7.34418 25.7819 7.35183 25.7446 7.36665 25.7099C7.38148 25.6752 7.40318 25.6438 7.43047 25.6177C7.53481 25.5476 7.71247 25.6177 7.81117 25.7607C7.90987 25.9037 7.91269 26.0943 7.81117 26.1672Z" fill="#333333"/>
<path d="M8.72197 27.1093C8.62892 27.213 8.43999 27.185 8.28489 27.0448C8.1298 26.9046 8.09313 26.714 8.18618 26.613C8.27924 26.5121 8.46818 26.5401 8.62891 26.6775C8.78965 26.8149 8.82067 27.0084 8.72197 27.1093Z" fill="#333333"/>
<path d="M9.99935 27.6589C9.95705 27.7907 9.76529 27.8496 9.57354 27.7935C9.38179 27.7374 9.25489 27.5804 9.29155 27.4458C9.32821 27.3112 9.52279 27.2495 9.71736 27.3112C9.91193 27.3729 10.036 27.5215 9.99935 27.6589Z" fill="#333333"/>
<path d="M11.3924 27.7542C11.3924 27.8916 11.2345 28.0093 11.0315 28.0121C10.8285 28.015 10.6621 27.9028 10.6621 27.7654C10.6621 27.628 10.82 27.5103 11.023 27.5075C11.2261 27.5047 11.3924 27.614 11.3924 27.7542Z" fill="#333333"/>
<path d="M12.6896 27.5383C12.715 27.6757 12.574 27.8187 12.3709 27.8523C12.1679 27.886 11.9903 27.8047 11.9649 27.6701C11.9395 27.5355 12.0861 27.3897 12.2835 27.3532C12.4809 27.3168 12.6642 27.4009 12.6896 27.5383Z" fill="#333333"/>
</svg>
