<svg width="33" height="33" viewBox="0 0 33 33" fill="none" xmlns="http://www.w3.org/2000/svg">
<path d="M16.1765 3.28823C20.4515 3.28823 20.9578 3.30698 22.639 3.38198C24.2015 3.45073 25.0453 3.71323 25.6078 3.93198C26.3515 4.21948 26.889 4.56948 27.4453 5.12573C28.0078 5.68823 28.3515 6.21948 28.639 6.96323C28.8578 7.52573 29.1203 8.37573 29.189 9.93198C29.264 11.6195 29.2828 12.1257 29.2828 16.3945C29.2828 20.6695 29.264 21.1757 29.189 22.857C29.1203 24.4195 28.8578 25.2632 28.639 25.8257C28.3515 26.5695 28.0015 27.107 27.4453 27.6632C26.8828 28.2257 26.3515 28.5695 25.6078 28.857C25.0453 29.0757 24.1953 29.3382 22.639 29.407C20.9515 29.482 20.4453 29.5007 16.1765 29.5007C11.9015 29.5007 11.3953 29.482 9.71401 29.407C8.15151 29.3382 7.30776 29.0757 6.74526 28.857C6.00151 28.5695 5.46401 28.2195 4.90776 27.6632C4.34526 27.1007 4.00151 26.5695 3.71401 25.8257C3.49526 25.2632 3.23276 24.4132 3.16401 22.857C3.08901 21.1695 3.07026 20.6632 3.07026 16.3945C3.07026 12.1195 3.08901 11.6132 3.16401 9.93198C3.23276 8.36948 3.49526 7.52573 3.71401 6.96323C4.00151 6.21948 4.35151 5.68198 4.90776 5.12573C5.47026 4.56323 6.00151 4.21948 6.74526 3.93198C7.30776 3.71323 8.15776 3.45073 9.71401 3.38198C11.3953 3.30698 11.9015 3.28823 16.1765 3.28823ZM16.1765 0.406982C11.8328 0.406982 11.289 0.425732 9.58276 0.500732C7.88276 0.575732 6.71401 0.850732 5.70151 1.24448C4.64526 1.65698 3.75151 2.20073 2.86401 3.09448C1.97026 3.98198 1.42651 4.87573 1.01401 5.92573C0.620264 6.94448 0.345264 8.10698 0.270264 9.80698C0.195264 11.5195 0.176514 12.0632 0.176514 16.407C0.176514 20.7507 0.195264 21.2945 0.270264 23.0007C0.345264 24.7007 0.620264 25.8695 1.01401 26.882C1.42651 27.9382 1.97026 28.832 2.86401 29.7195C3.75151 30.607 4.64526 31.157 5.69526 31.5632C6.71401 31.957 7.87651 32.232 9.57651 32.307C11.2828 32.382 11.8265 32.4007 16.1703 32.4007C20.514 32.4007 21.0578 32.382 22.764 32.307C24.464 32.232 25.6328 31.957 26.6453 31.5632C27.6953 31.157 28.589 30.607 29.4765 29.7195C30.364 28.832 30.914 27.9382 31.3203 26.8882C31.714 25.8695 31.989 24.707 32.064 23.007C32.139 21.3007 32.1578 20.757 32.1578 16.4132C32.1578 12.0695 32.139 11.5257 32.064 9.81948C31.989 8.11948 31.714 6.95073 31.3203 5.93823C30.9265 4.87573 30.3828 3.98198 29.489 3.09448C28.6015 2.20698 27.7078 1.65698 26.6578 1.25073C25.639 0.856982 24.4765 0.581982 22.7765 0.506982C21.064 0.425732 20.5203 0.406982 16.1765 0.406982Z" fill="#333333"/>
<path d="M16.1765 8.18826C11.639 8.18826 7.95776 11.8695 7.95776 16.407C7.95776 20.9445 11.639 24.6258 16.1765 24.6258C20.714 24.6258 24.3953 20.9445 24.3953 16.407C24.3953 11.8695 20.714 8.18826 16.1765 8.18826ZM16.1765 21.7383C13.2328 21.7383 10.8453 19.3508 10.8453 16.407C10.8453 13.4633 13.2328 11.0758 16.1765 11.0758C19.1203 11.0758 21.5078 13.4633 21.5078 16.407C21.5078 19.3508 19.1203 21.7383 16.1765 21.7383Z" fill="#333333"/>
<path d="M26.639 7.8632C26.639 8.9257 25.7765 9.78195 24.7203 9.78195C23.6578 9.78195 22.8015 8.91945 22.8015 7.8632C22.8015 6.8007 23.664 5.94445 24.7203 5.94445C25.7765 5.94445 26.639 6.80695 26.639 7.8632Z" fill="#333333"/>
</svg>
