<svg width="35" height="33" viewBox="0 0 35 33" fill="none" xmlns="http://www.w3.org/2000/svg">
<path d="M34.5902 16.4462C34.5902 21.9487 31.8871 24.5243 28.4877 24.5243C26.5218 24.5243 24.8016 23.5487 23.8186 22.0657C22.2623 23.5487 20.1735 24.4853 17.7981 24.4853C13.129 24.4853 9.36103 20.895 9.36103 16.4462C9.36103 11.9975 13.129 8.40722 17.7981 8.40722C22.4671 8.40722 26.2351 11.9975 26.2351 16.4462V19.0609C26.2351 20.3877 27.218 21.3243 28.4877 21.3243C30.0031 21.3243 31.2318 20.1145 31.2318 16.4462C31.2318 9.38283 25.2112 3.64625 17.7981 3.64625C10.3849 3.64625 4.32339 9.38283 4.32339 16.4462C4.32339 23.5096 10.344 29.2462 17.7571 29.2462C22.0575 29.2462 25.0064 27.217 25.0064 27.217L27.218 29.6365C27.218 29.6365 23.45 32.4072 17.7571 32.4072C8.50095 32.4072 0.964966 25.2267 0.964966 16.4072C0.964966 7.58771 8.50095 0.407227 17.7571 0.407227C27.0542 0.446251 34.5902 7.62673 34.5902 16.4462ZM17.7981 21.3243C20.624 21.3243 22.9176 19.1389 22.9176 16.4462C22.9176 13.7536 20.624 11.5682 17.7981 11.5682C14.9721 11.5682 12.6785 13.7536 12.6785 16.4462C12.6785 19.1389 14.9721 21.3243 17.7981 21.3243Z" fill="#333333"/>
</svg>
