<svg width="35" height="35" viewBox="0 0 35 35" fill="none" xmlns="http://www.w3.org/2000/svg">
<path fill-rule="evenodd" clip-rule="evenodd" d="M34.1177 17.4364C34.1177 26.8415 26.4933 34.4658 17.0882 34.4658C7.68317 34.4658 0.0588379 26.8415 0.0588379 17.4364C0.0588379 8.03131 7.68317 0.406982 17.0882 0.406982C26.4933 0.406982 34.1177 8.03131 34.1177 17.4364ZM17.6985 12.9789C16.0421 13.6678 12.7318 15.0937 7.76733 17.2566C6.96119 17.5772 6.53889 17.8908 6.50045 18.1975C6.43548 18.7157 7.08448 18.9198 7.96825 19.1977C8.08847 19.2355 8.21302 19.2747 8.34072 19.3162C9.21021 19.5988 10.3798 19.9295 10.9879 19.9426C11.5394 19.9545 12.155 19.7271 12.8346 19.2605C17.4731 16.1294 19.8674 14.5468 20.0177 14.5127C20.1238 14.4886 20.2708 14.4584 20.3703 14.5469C20.4699 14.6354 20.4601 14.803 20.4496 14.8479C20.3853 15.122 17.8377 17.4905 16.5193 18.7161C16.1084 19.0982 15.8168 19.3693 15.7572 19.4312C15.6237 19.5698 15.4877 19.701 15.3569 19.8271C14.5491 20.6058 13.9434 21.1897 15.3904 22.1433C16.0858 22.6016 16.6423 22.9805 17.1974 23.3586C17.8037 23.7715 18.4084 24.1833 19.1908 24.6961C19.3902 24.8268 19.5805 24.9625 19.766 25.0947C20.4715 25.5977 21.1054 26.0496 21.8885 25.9776C22.3436 25.9357 22.8136 25.5078 23.0523 24.2316C23.6165 21.2157 24.7254 14.6811 24.9817 11.9884C25.0041 11.7525 24.9759 11.4505 24.9532 11.318C24.9305 11.1854 24.8831 10.9966 24.7109 10.8568C24.5068 10.6913 24.1918 10.6563 24.051 10.6588C23.4105 10.6701 22.4278 11.0118 17.6985 12.9789Z" fill="#333333"/>
</svg>
