<svg width="35" height="35" viewBox="0 0 35 35" fill="none" xmlns="http://www.w3.org/2000/svg">
<path fill-rule="evenodd" clip-rule="evenodd" d="M2.51182 2.80113C0.117676 5.19527 0.117676 9.04856 0.117676 16.7552V18.1176C0.117676 25.8242 0.117676 29.6775 2.51182 32.0717C4.90596 34.4658 8.75925 34.4658 16.4659 34.4658H17.8283C25.5349 34.4658 29.3882 34.4658 31.7824 32.0717C34.1765 29.6775 34.1765 25.8242 34.1765 18.1176V16.7552C34.1765 9.04856 34.1765 5.19527 31.7824 2.80113C29.3882 0.406982 25.5349 0.406982 17.8283 0.406982H16.4659C8.75925 0.406982 4.90596 0.406982 2.51182 2.80113ZM5.86519 10.7666C6.04967 19.6219 10.4773 24.9436 18.2399 24.9436H18.6799V19.8773C21.5323 20.1612 23.6892 22.2473 24.5549 24.9436H28.5852C27.4783 20.9133 24.569 18.6853 22.7525 17.8338C24.569 16.7837 27.1234 14.2293 27.7336 10.7666H24.0722C23.2775 13.5765 20.9221 16.1309 18.6799 16.3721V10.7666H15.0184V20.5869C12.7478 20.0193 9.88128 17.2662 9.75356 10.7666H5.86519Z" fill="#333333"/>
</svg>
