<svg width="35" height="35" viewBox="0 0 35 35" fill="none" xmlns="http://www.w3.org/2000/svg">
    <path fill-rule="evenodd" clip-rule="evenodd"
          d="M2.54685 2.39414C0.15271 4.78829 0.15271 8.64157 0.15271 16.3482V17.7106C0.15271 25.4172 0.15271 29.2705 2.54685 31.6647C4.941 34.0588 8.79428 34.0588 16.5009 34.0588H17.8633C25.57 34.0588 29.4232 34.0588 31.8174 31.6647C34.2115 29.2705 34.2115 25.4172 34.2115 17.7106V16.3482C34.2115 8.64157 34.2115 4.78829 31.8174 2.39414C29.4232 0 25.57 0 17.8633 0H16.5009C8.79428 0 4.941 0 2.54685 2.39414ZM5.90022 10.3596C6.08471 19.2149 10.5123 24.5366 18.2749 24.5366H18.7149V19.4704C21.5673 19.7542 23.7243 21.8403 24.5899 24.5366H28.6203C27.5134 20.5063 24.604 18.2783 22.7876 17.4268C24.604 16.3767 27.1584 13.8223 27.7687 10.3596H24.1073C23.3126 13.1695 20.9571 15.7239 18.7149 15.9651V10.3596H15.0534V20.1799C12.7829 19.6123 9.91631 16.8592 9.78859 10.3596H5.90022Z"
          fill="#333333"/>
</svg>
